<?xml version="1.0" encoding="UTF-8" standalone="no"?>
<svg
   xmlns:dc="http://purl.org/dc/elements/1.1/"
   xmlns:cc="http://creativecommons.org/ns#"
   xmlns:rdf="http://www.w3.org/1999/02/22-rdf-syntax-ns#"
   xmlns:svg="http://www.w3.org/2000/svg"
   xmlns="http://www.w3.org/2000/svg"
   xmlns:sodipodi="http://sodipodi.sourceforge.net/DTD/sodipodi-0.dtd"
   xmlns:inkscape="http://www.inkscape.org/namespaces/inkscape"
   version="1.1"
   id="Layer_1"
   x="0px"
   y="0px"
   width="1250"
   height="34"
   viewBox="0 0 1250 34"
   enable-background="new 0 0 1150 34"
   xml:space="preserve"
   sodipodi:docname="bg-zigzag-fill.svg"
   inkscape:version="0.92.3 (2405546, 2018-03-11)"><metadata
   id="metadata9"><rdf:RDF><cc:Work
       rdf:about=""><dc:format>image/svg+xml</dc:format><dc:type
         rdf:resource="http://purl.org/dc/dcmitype/StillImage" /><dc:title></dc:title></cc:Work></rdf:RDF></metadata><defs
   id="defs7" /><sodipodi:namedview
   pagecolor="#ffffff"
   bordercolor="#666666"
   borderopacity="1"
   objecttolerance="10"
   gridtolerance="10"
   guidetolerance="10"
   inkscape:pageopacity="0"
   inkscape:pageshadow="2"
   inkscape:window-width="1366"
   inkscape:window-height="715"
   id="namedview5"
   showgrid="false"
   inkscape:zoom="0.70710678"
   inkscape:cx="796.88344"
   inkscape:cy="-11.379036"
   inkscape:window-x="-8"
   inkscape:window-y="-8"
   inkscape:window-maximized="1"
   inkscape:current-layer="Layer_1" />
  <path
   d="m 1218.7522,0 c -15.6251,0 -15.6251,14 -31.249,14 -15.6239,0 -15.6239,-14 -31.2478,-14 -15.624,0 -15.624,14 -31.2478,14 -15.625,0 -15.625,-14 -31.2501,-14 -15.6239,0 -15.6239,14 -31.2478,14 -15.6239,0 -15.6239,-14 -31.2478,-14 -15.6239,0 -15.6239,14 -31.2489,14 -15.62499,0 -15.62499,-14 -31.2489,-14 -15.62392,0 -15.62392,14 -31.24892,14 -15.625,0 -15.625,-14 -31.24999,-14 -15.62065,0 -15.62065,14 -31.24238,14 -15.625,0 -15.625,-14 -31.25,-14 C 828.15106,0 828.15106,14 812.52933,14 796.90542,14 796.90542,0 781.28258,0 765.65976,0 765.65976,14 750.03585,14 734.41301,14 734.41301,0 718.79019,0 703.16629,0 703.16629,14 687.54237,14 671.91738,14 671.91738,0 656.29129,0 640.66737,0 640.66737,14 625.04346,14 609.41955,14 609.41955,0 593.79563,0 578.17171,0 578.17171,14 562.54782,14 546.9239,14 546.9239,0 531.29998,0 515.67499,0 515.67499,14 500.04999,14 484.42391,14 484.42391,0 468.79672,0 c -15.62501,0 -15.62501,14 -31.25,14 -15.62501,0 -15.62501,-14 -31.25109,-14 -15.625,0 -15.625,14 -31.25,14 -15.62499,0 -15.62608,-14 -31.25108,-14 -15.625,0 -15.625,14 -31.25109,14 C 296.91739,14 296.91739,0 281.2902,0 265.66631,0 265.66631,14 250.04347,14 234.41847,14 234.41847,0 218.79348,0 203.16847,0 203.16847,14 187.54239,14 171.9152,14 171.9152,0 156.28803,0 140.66087,0 140.66087,14 125.03261,14 109.40435,14 109.40435,0 93.776085,0 78.147824,0 78.147824,14 62.519563,14 46.890216,14 46.890216,0 31.259783,0 15.629348,0 15.630435,14 0,14 V 34 H 1250 V 14 c -15.6239,0 -15.6239,-14 -31.2478,-14 z"
   id="path2"
   inkscape:connector-curvature="0"
   style="fill:#ffffff;stroke-width:1.0425719" />
</svg>